<svg xmlns="http://www.w3.org/2000/svg" viewBox="0 0 600 600" width="600" height="600" preserveAspectRatio="xMidYMid meet" style="width: 100%; height: 100%; transform: translate3d(0px, 0px, 0px);"><defs><clipPath id="__lottie_element_17"><rect width="600" height="600" x="0" y="0"></rect></clipPath></defs><g clip-path="url(#__lottie_element_17)"><g transform="matrix(1,0,0,1,0,0)" opacity="1" style="display: block;"><g opacity="1" transform="matrix(1,0,0,1,0,0)"><path stroke-linecap="round" stroke-linejoin="miter" fill-opacity="0" stroke-miterlimit="10" stroke="rgb(66,93,251)" stroke-opacity="1" stroke-width="5" d="M0 0"></path></g></g><g transform="matrix(0,0,0,0,462.5,467.5)" opacity="1" style="display: block;"><g opacity="1" transform="matrix(1,0,0,1,462.5,429.1549987792969)"><path fill="rgb(66,93,251)" fill-opacity="1" d=" M65,-0.3100000023841858 C65,-0.3100000023841858 0,34.61000061035156 0,34.61000061035156 C0,34.61000061035156 -0.23999999463558197,34.47999954223633 -0.23999999463558197,34.47999954223633 C-0.23999999463558197,34.47999954223633 -0.2800000011920929,34.46099853515625 -0.2800000011920929,34.46099853515625 C-0.2800000011920929,34.46099853515625 -65,-0.3100000023841858 -65,-0.3100000023841858 C-65,-0.3100000023841858 0,-34.61000061035156 0,-34.61000061035156 C0,-34.61000061035156 65,-0.3100000023841858 65,-0.3100000023841858z"></path></g><g opacity="1" transform="matrix(1,0,0,1,429.8800048828125,484.5849914550781)"><path fill="rgb(188,198,255)" fill-opacity="1" d=" M32.380001068115234,-20.950000762939453 C32.380001068115234,-20.950000762939453 32.380001068115234,55.7400016784668 32.380001068115234,55.7400016784668 C32.380001068115234,55.7400016784668 -32.380001068115234,20.950000762939453 -32.380001068115234,20.950000762939453 C-32.380001068115234,20.950000762939453 -32.380001068115234,-55.7400016784668 -32.380001068115234,-55.7400016784668 C-32.380001068115234,-55.7400016784668 32.34000015258789,-20.969999313354492 32.34000015258789,-20.969999313354492 C32.34000015258789,-20.969999313354492 32.380001068115234,-20.950000762939453 32.380001068115234,-20.950000762939453z"></path></g><g opacity="1" transform="matrix(1,0,0,1,494.8800048828125,484.6499938964844)"><path fill="rgb(112,126,255)" fill-opacity="1" d=" M32.619998931884766,-55.80500030517578 C32.619998931884766,-55.80500030517578 32.619998931884766,20.885000228881836 32.619998931884766,20.885000228881836 C32.619998931884766,20.885000228881836 -32.380001068115234,55.80500030517578 -32.380001068115234,55.80500030517578 C-32.380001068115234,55.80500030517578 -32.619998931884766,55.67499923706055 -32.619998931884766,55.67499923706055 C-32.619998931884766,55.67499923706055 -32.619998931884766,-21.014999389648438 -32.619998931884766,-21.014999389648438 C-32.619998931884766,-21.014999389648438 -32.380001068115234,-20.885000228881836 -32.380001068115234,-20.885000228881836 C-32.380001068115234,-20.885000228881836 32.619998931884766,-55.80500030517578 32.619998931884766,-55.80500030517578z"></path></g></g><g transform="matrix(-1,0,0,-1,925,606)" opacity="1" style="display: block;"><g opacity="1" transform="matrix(1,0,0,1,0,0)"><path stroke-linecap="round" stroke-linejoin="miter" fill-opacity="0" stroke-miterlimit="10" stroke="rgb(66,93,251)" stroke-opacity="1" stroke-width="5" d="M0 0"></path></g></g><g transform="matrix(0,0,0,0,462.5,132.5)" opacity="1" style="display: block;"><g opacity="1" transform="matrix(1,0,0,1,462.5,94.15499877929688)"><path fill="rgb(66,93,251)" fill-opacity="1" d=" M65,-0.3100000023841858 C65,-0.3100000023841858 0,34.61000061035156 0,34.61000061035156 C0,34.61000061035156 -0.23999999463558197,34.47999954223633 -0.23999999463558197,34.47999954223633 C-0.23999999463558197,34.47999954223633 -0.2800000011920929,34.459999084472656 -0.2800000011920929,34.459999084472656 C-0.2800000011920929,34.459999084472656 -65,-0.3100000023841858 -65,-0.3100000023841858 C-65,-0.3100000023841858 0,-34.61000061035156 0,-34.61000061035156 C0,-34.61000061035156 65,-0.3100000023841858 65,-0.3100000023841858z"></path></g><g opacity="1" transform="matrix(1,0,0,1,429.8800048828125,149.5850067138672)"><path fill="rgb(188,198,255)" fill-opacity="1" d=" M32.380001068115234,-20.950000762939453 C32.380001068115234,-20.950000762939453 32.380001068115234,55.7400016784668 32.380001068115234,55.7400016784668 C32.380001068115234,55.7400016784668 -32.380001068115234,20.950000762939453 -32.380001068115234,20.950000762939453 C-32.380001068115234,20.950000762939453 -32.380001068115234,-55.7400016784668 -32.380001068115234,-55.7400016784668 C-32.380001068115234,-55.7400016784668 32.34000015258789,-20.969999313354492 32.34000015258789,-20.969999313354492 C32.34000015258789,-20.969999313354492 32.380001068115234,-20.950000762939453 32.380001068115234,-20.950000762939453z"></path></g><g opacity="1" transform="matrix(1,0,0,1,494.8800048828125,149.64999389648438)"><path fill="rgb(112,126,255)" fill-opacity="1" d=" M32.619998931884766,-55.80500030517578 C32.619998931884766,-55.80500030517578 32.619998931884766,20.885000228881836 32.619998931884766,20.885000228881836 C32.619998931884766,20.885000228881836 -32.380001068115234,55.80500030517578 -32.380001068115234,55.80500030517578 C-32.380001068115234,55.80500030517578 -32.619998931884766,55.67499923706055 -32.619998931884766,55.67499923706055 C-32.619998931884766,55.67499923706055 -32.619998931884766,-21.014999389648438 -32.619998931884766,-21.014999389648438 C-32.619998931884766,-21.014999389648438 -32.380001068115234,-20.885000228881836 -32.380001068115234,-20.885000228881836 C-32.380001068115234,-20.885000228881836 32.619998931884766,-55.80500030517578 32.619998931884766,-55.80500030517578z"></path></g></g><g transform="matrix(-1,0,0,-1,600,281)" opacity="1" style="display: block;"><g opacity="1" transform="matrix(1,0,0,1,0,0)"><path stroke-linecap="round" stroke-linejoin="miter" fill-opacity="0" stroke-miterlimit="10" stroke="rgb(66,93,251)" stroke-opacity="1" stroke-width="5" d="M0 0"></path></g></g><g transform="matrix(0,0,0,0,137.5,132.5)" opacity="1" style="display: block;"><g opacity="1" transform="matrix(1,0,0,1,137.5,94.15499877929688)"><path fill="rgb(66,93,251)" fill-opacity="1" d=" M65,-0.3100000023841858 C65,-0.3100000023841858 0,34.61000061035156 0,34.61000061035156 C0,34.61000061035156 -0.23999999463558197,34.47999954223633 -0.23999999463558197,34.47999954223633 C-0.23999999463558197,34.47999954223633 -0.2800000011920929,34.459999084472656 -0.2800000011920929,34.459999084472656 C-0.2800000011920929,34.459999084472656 -65,-0.3100000023841858 -65,-0.3100000023841858 C-65,-0.3100000023841858 0,-34.61000061035156 0,-34.61000061035156 C0,-34.61000061035156 65,-0.3100000023841858 65,-0.3100000023841858z"></path></g><g opacity="1" transform="matrix(1,0,0,1,104.87999725341797,149.5850067138672)"><path fill="rgb(188,198,255)" fill-opacity="1" d=" M32.380001068115234,-20.950000762939453 C32.380001068115234,-20.950000762939453 32.380001068115234,55.7400016784668 32.380001068115234,55.7400016784668 C32.380001068115234,55.7400016784668 -32.380001068115234,20.950000762939453 -32.380001068115234,20.950000762939453 C-32.380001068115234,20.950000762939453 -32.380001068115234,-55.7400016784668 -32.380001068115234,-55.7400016784668 C-32.380001068115234,-55.7400016784668 32.34000015258789,-20.969999313354492 32.34000015258789,-20.969999313354492 C32.34000015258789,-20.969999313354492 32.380001068115234,-20.950000762939453 32.380001068115234,-20.950000762939453z"></path></g><g opacity="1" transform="matrix(1,0,0,1,169.8800048828125,149.64999389648438)"><path fill="rgb(112,126,255)" fill-opacity="1" d=" M32.619998931884766,-55.80500030517578 C32.619998931884766,-55.80500030517578 32.619998931884766,20.885000228881836 32.619998931884766,20.885000228881836 C32.619998931884766,20.885000228881836 -32.380001068115234,55.80500030517578 -32.380001068115234,55.80500030517578 C-32.380001068115234,55.80500030517578 -32.619998931884766,55.67499923706055 -32.619998931884766,55.67499923706055 C-32.619998931884766,55.67499923706055 -32.619998931884766,-21.014999389648438 -32.619998931884766,-21.014999389648438 C-32.619998931884766,-21.014999389648438 -32.380001068115234,-20.885000228881836 -32.380001068115234,-20.885000228881836 C-32.380001068115234,-20.885000228881836 32.619998931884766,-55.80500030517578 32.619998931884766,-55.80500030517578z"></path></g></g><g transform="matrix(1,0,0,1,0,0)" opacity="1" style="display: block;"><g opacity="1" transform="matrix(1,0,0,1,0,0)"><path stroke-linecap="round" stroke-linejoin="miter" fill-opacity="0" stroke-miterlimit="10" stroke="rgb(66,93,251)" stroke-opacity="1" stroke-width="5" d="M0 0"></path></g></g><g transform="matrix(0,0,0,0,137.5,467.5)" opacity="1" style="display: block;"><g opacity="1" transform="matrix(1,0,0,1,137.5,429.1549987792969)"><path fill="rgb(66,93,251)" fill-opacity="1" d=" M65,-0.3100000023841858 C65,-0.3100000023841858 0,34.61000061035156 0,34.61000061035156 C0,34.61000061035156 -0.23999999463558197,34.47999954223633 -0.23999999463558197,34.47999954223633 C-0.23999999463558197,34.47999954223633 -0.2800000011920929,34.46099853515625 -0.2800000011920929,34.46099853515625 C-0.2800000011920929,34.46099853515625 -65,-0.3100000023841858 -65,-0.3100000023841858 C-65,-0.3100000023841858 0,-34.61000061035156 0,-34.61000061035156 C0,-34.61000061035156 65,-0.3100000023841858 65,-0.3100000023841858z"></path></g><g opacity="1" transform="matrix(1,0,0,1,104.87999725341797,484.5849914550781)"><path fill="rgb(188,198,255)" fill-opacity="1" d=" M32.380001068115234,-20.950000762939453 C32.380001068115234,-20.950000762939453 32.380001068115234,55.7400016784668 32.380001068115234,55.7400016784668 C32.380001068115234,55.7400016784668 -32.380001068115234,20.950000762939453 -32.380001068115234,20.950000762939453 C-32.380001068115234,20.950000762939453 -32.380001068115234,-55.7400016784668 -32.380001068115234,-55.7400016784668 C-32.380001068115234,-55.7400016784668 32.34000015258789,-20.969999313354492 32.34000015258789,-20.969999313354492 C32.34000015258789,-20.969999313354492 32.380001068115234,-20.950000762939453 32.380001068115234,-20.950000762939453z"></path></g><g opacity="1" transform="matrix(1,0,0,1,169.8800048828125,484.6499938964844)"><path fill="rgb(112,126,255)" fill-opacity="1" d=" M32.619998931884766,-55.80500030517578 C32.619998931884766,-55.80500030517578 32.619998931884766,20.885000228881836 32.619998931884766,20.885000228881836 C32.619998931884766,20.885000228881836 -32.380001068115234,55.80500030517578 -32.380001068115234,55.80500030517578 C-32.380001068115234,55.80500030517578 -32.619998931884766,55.67499923706055 -32.619998931884766,55.67499923706055 C-32.619998931884766,55.67499923706055 -32.619998931884766,-21.014999389648438 -32.619998931884766,-21.014999389648438 C-32.619998931884766,-21.014999389648438 -32.380001068115234,-20.885000228881836 -32.380001068115234,-20.885000228881836 C-32.380001068115234,-20.885000228881836 32.619998931884766,-55.80500030517578 32.619998931884766,-55.80500030517578z"></path></g></g></g></svg>