<svg width="1440" height="697" viewBox="0 0 1440 697" fill="none" xmlns="http://www.w3.org/2000/svg">
<g clip-path="url(#clip0_717_5352)">
<rect y="-10" width="1440" height="717" fill="#181818"/>
<rect y="-10" width="1440" height="717" fill="#020202"/>
<g filter="url(#filter0_f_717_5352)">
<g filter="url(#filter1_f_717_5352)">
<path d="M1262.19 705.144C1173.71 879.98 1033.52 707.341 810.049 594.24C586.579 481.138 364.45 470.403 452.937 295.567C541.424 120.732 794.314 70.6869 1017.78 183.788C1241.25 296.89 1350.68 530.309 1262.19 705.144Z" fill="url(#paint0_linear_717_5352)"/>
</g>
<ellipse cx="797.453" cy="803" rx="644.5" ry="532" fill="#733FF1"/>
<ellipse cx="1426.95" cy="812.5" rx="697" ry="642.5" fill="#36BEFF"/>
<ellipse cx="367.953" cy="940.5" rx="548" ry="366.5" fill="#FF91F4"/>
</g>
<g opacity="0.25">
<path d="M238.051 1495.76L1311.34 1683.43L943.06 658.11L-128.441 475.412L238.051 1495.76Z" fill="url(#paint1_linear_717_5352)" fill-opacity="0.5" stroke="white" stroke-width="1.5"/>
<path d="M580.97 -364.335L1651.07 -169.895L942.484 657.8L-128.867 475.158L580.97 -364.335Z" stroke="white" stroke-width="1.5"/>
<path d="M2010.77 846.99L1307.17 1672.9L942.462 657.527L1651.05 -170.167L2010.77 846.99Z" fill="url(#paint2_linear_717_5352)" fill-opacity="0.6" stroke="white" stroke-width="1.5"/>
</g>
</g>
<defs>
<filter id="filter0_f_717_5352" x="-380.047" y="-76.7212" width="2704" height="1731.72" filterUnits="userSpaceOnUse" color-interpolation-filters="sRGB">
<feFlood flood-opacity="0" result="BackgroundImageFix"/>
<feBlend mode="normal" in="SourceGraphic" in2="BackgroundImageFix" result="shape"/>
<feGaussianBlur stdDeviation="100" result="effect1_foregroundBlur_717_5352"/>
</filter>
<filter id="filter1_f_717_5352" x="325.026" y="15.2788" width="1075.85" height="872.418" filterUnits="userSpaceOnUse" color-interpolation-filters="sRGB">
<feFlood flood-opacity="0" result="BackgroundImageFix"/>
<feBlend mode="normal" in="SourceGraphic" in2="BackgroundImageFix" result="shape"/>
<feGaussianBlur stdDeviation="54" result="effect1_foregroundBlur_717_5352"/>
</filter>
<linearGradient id="paint0_linear_717_5352" x1="1193.45" y1="634" x2="571.449" y2="110.5" gradientUnits="userSpaceOnUse">
<stop stop-color="#A7CAFF"/>
<stop offset="1" stop-color="#5B58FF" stop-opacity="0"/>
</linearGradient>
<linearGradient id="paint1_linear_717_5352" x1="933.04" y1="564.133" x2="164.439" y2="1668.54" gradientUnits="userSpaceOnUse">
<stop stop-color="#CEDCF7"/>
<stop offset="1" stop-color="white" stop-opacity="0.8"/>
</linearGradient>
<linearGradient id="paint2_linear_717_5352" x1="1821.1" y1="237.208" x2="1055.05" y2="1341.59" gradientUnits="userSpaceOnUse">
<stop stop-color="#DCE8FF"/>
<stop offset="1" stop-color="white" stop-opacity="0.8"/>
</linearGradient>
<clipPath id="clip0_717_5352">
<rect width="1440" height="697" fill="white"/>
</clipPath>
</defs>
</svg>
